<?xml version="1.0" encoding="utf-8"?>
<!-- Generator: Adobe Illustrator 22.1.0, SVG Export Plug-In . SVG Version: 6.00 Build 0)  -->
<svg version="1.1" id="图层_1" xmlns="http://www.w3.org/2000/svg" xmlns:xlink="http://www.w3.org/1999/xlink" x="0px" y="0px"
	 viewBox="0 0 91 18" style="enable-background:new 0 0 91 18;" xml:space="preserve">
<style type="text/css">
	.st0{display:none;}
	.st1{display:inline;}
	.st2{fill:#006595;}
	.st3{fill:#1B98E0;}
	.st4{fill:#FF0000;}
	.st5{fill:#FFFFFF;}
	.st6{fill:#333333;}
	.st7{font-family:'FZZZHONGJW--GB1-0';}
	.st8{font-size:9.976px;}
</style>
<desc>Created with Sketch.</desc>
<g id="Page-1_1_" class="st0">
	<g id="内页" transform="translate(-22.000000, -19.000000)" class="st1">
		<g id="Page-1" transform="translate(22.000000, 19.000000)">
			<path id="Fill-1" class="st2" d="M5,18H0v-6.3c0-2.9,2.3-5.2,5-5.2V18z"/>
			<path id="Fill-3" class="st3" d="M20.2,18h-5v-6.3c0-2.9,2.3-5.3,5-5.3l0,0V18z"/>
			<path id="Fill-5" class="st3" d="M51.1,18h-5v-6.3c0-2.9,2.3-5.3,5-5.3V18z"/>
			<polygon id="Fill-7" class="st3" points="21.6,18 26.6,18 26.6,6.5 21.6,6.5 			"/>
			<path id="Fill-9" class="st3" d="M59.8,18h-5v-6.3c0-2.9,2.3-5.3,5-5.3l0,0V18z"/>
			<polygon id="Fill-10" class="st3" points="61.2,18 66.2,18 66.2,6.5 61.2,6.5 			"/>
			<polygon id="Fill-11" class="st3" points="75.6,11.5 80.6,11.5 80.6,6.5 75.6,6.5 			"/>
			<polygon id="Fill-12" class="st3" points="75.6,18 75.6,14.4 80.6,14.4 80.6,18 			"/>
			<path id="Fill-13" class="st3" d="M74.9,18h-5v-6.3c0-2.9,2.3-5.3,5-5.3l0,0V18z"/>
			<path id="Fill-14" class="st3" d="M89.6,17.8h-5v-6.3c0-2.9,2.3-5.3,5-5.3l0,0V17.8z"/>
			<polygon id="Fill-15" class="st3" points="28.1,18 31.7,18 31.7,14.4 28.1,14.4 			"/>
			<polygon id="Fill-16" class="st2" points="6.3,0 6.3,11.2 6.3,18 11.3,18 11.3,11.2 11.3,0 			"/>
			<polyline id="Fill-17" class="st2" points="40.7,18 47.3,2.1 90.2,2.1 90.2,0 42.9,0 42.9,0 42.9,0 38.2,10.4 33.6,0.1 33.6,0 
				33.5,0 15.3,0 15.3,2.1 29.1,2.1 35.7,18 36,18 40.4,18 40.7,18 			"/>
			<polygon id="Fill-18" class="st3" points="75.6,11.5 80.6,11.5 80.6,6.5 75.6,6.5 			"/>
			<polygon id="Fill-19" class="st3" points="75.6,17.3 80.6,17.3 80.6,12.2 75.6,12.2 			"/>
		</g>
	</g>
</g>
<path class="st4" d="M15.1,17.9l-12.2,0c-1.6,0-2.8-1.3-2.8-2.8l0-12.2C0.1,1.3,1.3,0,2.9,0h12.2C16.7,0,18,1.3,18,2.9v12.2
	C18,16.7,16.7,17.9,15.1,17.9z"/>
<g>
	<path class="st5" d="M6.1,8.5v0.8h2.6v0.6H6.1v1.8c0,0.3-0.1,0.4-0.2,0.5c-0.1,0.1-0.2,0.1-0.4,0.1c-0.1,0-0.3,0-0.6,0H4.2
		l-0.2-0.6h1.2V9.8H2.4V9.2h2.8V8.5H2.1V7.9h7v0.6H6.1z M4.5,10.1c-0.2,0.6-0.6,1.1-1.1,1.5C3,11.8,2.6,12,2.1,12.2v-0.5
		C2.5,11.5,2.8,11.3,3,11c0.2-0.2,0.4-0.6,0.6-1H4.5z M5.1,6.1C5.1,6.1,5.1,6.1,5.1,6.1c0-0.2-0.1-0.4-0.2-0.7h0.8
		C5.9,5.6,6,5.9,6.1,6.1h2.6v0.6H2.4V6.1H5.1z M4.2,6.8c0.2,0.3,0.3,0.6,0.6,0.9H3.7C3.6,7.4,3.5,7.1,3.4,6.8H4.2z M7.6,6.8
		c0,0.3-0.1,0.6-0.2,0.9H6.3c0.2-0.2,0.4-0.5,0.6-0.9H7.6z M8.8,12.1h-1c-0.2-0.6-0.6-1.2-1.2-2l0.6,0c0.3,0.3,0.6,0.6,0.8,0.8
		C8.3,11.2,8.6,11.7,8.8,12.1z"/>
	<path class="st5" d="M13.2,9.5L13.2,9.5c-0.5,0.3-1,0.5-1.6,0.7c-0.4,0.1-0.9,0.2-1.4,0.3V10c1.1-0.3,2-0.7,2.8-1.2
		c-0.1-0.1-0.1-0.2-0.2-0.3C12,8.8,11.1,9,10.2,9.2V8.7c1-0.2,1.9-0.6,2.5-1h-1.6V7.1h4.4v0.6H14c-0.2,0.2-0.5,0.4-0.7,0.5
		c0.2,0.1,0.3,0.2,0.3,0.2c0.2,0.2,0.3,0.4,0.4,0.8c0.3-0.1,0.5-0.3,0.6-0.4c0.2-0.2,0.4-0.4,0.6-0.7h1c-0.3,0.5-0.7,0.9-1.2,1.2
		c0.1,0.3,0.2,0.6,0.4,0.8c0.3,0.5,0.7,0.9,1.3,1.3V12c-0.7-0.3-1.2-0.6-1.5-1c-0.3-0.3-0.6-0.7-0.8-1.2l0-0.1
		c-0.1,0-0.2,0.1-0.2,0.1c0,0.3,0,0.7,0,1.2c0,0.6-0.1,1-0.3,1.2c-0.2,0.1-0.4,0.2-0.8,0.2h-1l-0.2-0.6h1c0.1,0,0.2,0,0.3-0.1
		c0.1-0.1,0.1-0.4,0.1-0.9c0,0,0,0,0-0.1c-0.1,0-0.1,0.1-0.1,0.1c-0.8,0.4-1.9,0.8-3.1,1v-0.5c1.3-0.3,2.4-0.8,3.2-1.4
		C13.2,9.7,13.2,9.6,13.2,9.5z M16.6,6v1.6h-0.9v-1h-4.9v1H10V6h2.9c0-0.2-0.1-0.4-0.1-0.6h0.8c0,0.1,0.1,0.2,0.1,0.3
		c0.1,0.1,0.1,0.2,0.1,0.4H16"/>
</g>
<text transform="matrix(1 0 0 1 19.3342 12.7207)" class="st6 st7 st8">推背图报表平台</text>
</svg>
